<svg xmlns="http://www.w3.org/2000/svg" viewBox="0 0 72 72" width="72" height="72" preserveAspectRatio="xMidYMid meet" style="width: 100%; height: 100%; transform: translate3d(0px, 0px, 0px); content-visibility: visible;"><defs><clipPath id="__lottie_element_1490"><rect width="72" height="72" x="0" y="0"></rect></clipPath></defs><g clip-path="url(#__lottie_element_1490)"><g transform="matrix(1,0,0,1,36,26.822357177734375)" opacity="1" style="display: block;"><g opacity="1" transform="matrix(2,0,0,2,0,0)"><path stroke-linecap="butt" stroke-linejoin="miter" fill-opacity="0" stroke-miterlimit="4" stroke="rgb(255,255,255)" stroke-opacity="1" stroke-width="1.7" d=" M0,4 C2.2090001106262207,4 4,2.2090001106262207 4,0 C4,-2.2090001106262207 2.2090001106262207,-4 0,-4 C-2.2090001106262207,-4 -4,-2.2090001106262207 -4,0 C-4,2.2090001106262207 -2.2090001106262207,4 0,4z"></path></g></g><g transform="matrix(1,0,0,1,36,45)" opacity="1" style="display: block;"><g opacity="1" transform="matrix(2,0,0,2,0,0)"><path stroke-linecap="round" stroke-linejoin="round" fill-opacity="0" stroke="rgb(255,255,255)" stroke-opacity="1" stroke-width="1.7" d="M0 0"></path></g></g><g style="display: block;" transform="matrix(1,0,0,1,36,45)" opacity="1"><g opacity="1" transform="matrix(2,0,0,2,0,0)"><path stroke-linecap="round" stroke-linejoin="round" fill-opacity="0" stroke="rgb(255,255,255)" stroke-opacity="1" stroke-width="1.7" d=" M-6.829999923706055,4.302000045776367 C-7.046999931335449,4.198999881744385 -7.276000022888184,4.043000221252441 -7.478000164031982,3.808000087738037 C-8.092000007629395,3.0920000076293945 -7.767000198364258,2.2009999752044678 -7.478000164031982,1.2669999599456787 C-6.78000020980835,-0.9919999837875366 -4.304999828338623,-4.5 0,-4.5 C4.304999828338623,-4.5 6.78000020980835,-0.9919999837875366 7.478000164031982,1.2669999599456787 C7.767000198364258,2.2009999752044678 8.092000007629395,3.0920000076293945 7.478000164031982,3.808000087738037 C7.478000164031982,3.808000087738037 7.478000164031982,3.808000087738037 7.478000164031982,3.808000087738037 C6.863999843597412,4.52400016784668 5.999000072479248,4.5 5.999000072479248,4.5 C5.999000072479248,4.5 0,4.5 0,4.5 C0,4.5 -5.999000072479248,4.5 -5.999000072479248,4.5 C-5.999000072479248,4.5 -6.388999938964844,4.511000156402588 -6.829999923706055,4.302000045776367"></path></g></g></g></svg>